<?xml version="1.0" encoding="UTF-8"?>
<svg viewBox="0 0 40 40" xmlns="http://www.w3.org/2000/svg">
  <defs>
    <radialGradient id="gg" cx="50%" cy="40%" r="55%">
      <stop offset="0%" stop-color="#b8860b" stop-opacity="0.15"/>
      <stop offset="100%" stop-color="#8b2500" stop-opacity="0.05"/>
    </radialGradient>
  </defs>
  <circle cx="20" cy="20" r="17" fill="url(#gg)" stroke="#8b2500" stroke-width="1.5"/>
  <!-- Chalice -->
  <path d="M 14 14 Q 13 22 14 25 Q 16 30 20 31 Q 24 30 26 25 Q 27 22 26 14" fill="none" stroke="#8b2500" stroke-width="1.5"/>
  <line x1="14" y1="14" x2="26" y2="14" stroke="#8b2500" stroke-width="1.5"/>
  <!-- Base -->
  <line x1="20" y1="31" x2="20" y2="34" stroke="#8b2500" stroke-width="1.5"/>
  <line x1="16" y1="34" x2="24" y2="34" stroke="#8b2500" stroke-width="1.5" stroke-linecap="round"/>
  <!-- Flame -->
  <path d="M 20 22 Q 17 18 18 15 Q 20 12 20 10 Q 20 12 22 15 Q 23 18 20 22" fill="#b8860b" opacity="0.5"/>
  <path d="M 20 22 Q 19 19 20 16 Q 21 19 20 22" fill="#8b2500" opacity="0.4"/>
</svg>
